<svg width="128" height="128" viewBox="0 0 128 128" fill="none" xmlns="http://www.w3.org/2000/svg">
<rect width="128" height="128" fill="#6E7F5C"/>
<g clip-path="url(#clip0_52_100)">
<path fill-rule="evenodd" clip-rule="evenodd" d="M92.686 101.094C93.5719 100.409 94.4053 99.6871 95.1863 98.9474C82.1335 93.473 72.2306 86.8285 63.3056 80.1052C52.6481 80.0809 41.6625 77.5711 36.0385 71.1509C44.4188 75.0491 53.2388 75.0673 56.2116 74.6974C31.0181 53.6848 24.0422 33.139 24.0422 33.139C32.6653 45.6277 41.7675 55.2792 50.6794 62.9422C46.9453 56.3462 49.1306 44.1485 49.1306 44.1485C56.3953 67.7801 57.2485 68.156 56.7694 68.3621C62.6756 72.7817 69.0741 76.9345 74.4028 80.1052C72.4866 75.9827 71.1281 69.9747 71.3053 59.6806C71.3053 59.6806 76.0435 81.2752 83.4853 86.5921C89.4113 89.7506 94.6285 92.1999 98.671 94.0611C105.076 85.2341 105.109 61.6994 89.4113 52.248C72.4931 42.0509 43.966 41.6629 15.1106 15.582C6.48096 7.77956 22.5197 76.4252 45.7575 95.5646C60.0375 107.356 78.6225 111.939 92.686 101.094Z" fill="#F3F1E6"/>
<path fill-rule="evenodd" clip-rule="evenodd" d="M85.9331 100.263C85.9331 100.263 93.6769 103.979 102.562 107.605C111.448 111.23 115.707 110.496 116.206 111.394C116.718 112.303 116.462 101.439 116.462 101.439C116.462 101.439 104.466 104.064 91.1109 97.2196L85.9331 100.263Z" fill="#F3F1E6"/>
</g>
<defs>
<clipPath id="clip0_52_100">
<rect width="105" height="97" fill="white" transform="translate(12 15)"/>
</clipPath>
</defs>
</svg>
