<svg width="491" height="174" viewBox="0 0 491 174" fill="none" xmlns="http://www.w3.org/2000/svg">
<path d="M8.46 151V88H20.16V141.1H53.1V151H8.46ZM85.2075 151.63C79.8675 151.63 75.1875 150.58 71.1675 148.48C67.2075 146.32 64.1175 143.38 61.8975 139.66C59.7375 135.94 58.6575 131.71 58.6575 126.97C58.6575 122.17 59.7075 117.94 61.8075 114.28C63.9675 110.56 66.9075 107.65 70.6275 105.55C74.4075 103.45 78.6975 102.4 83.4975 102.4C88.1775 102.4 92.3475 103.42 96.0075 105.46C99.6675 107.5 102.547 110.38 104.648 114.1C106.748 117.82 107.798 122.2 107.798 127.24C107.798 127.72 107.768 128.26 107.707 128.86C107.707 129.46 107.678 130.03 107.618 130.57H67.5675V123.1H101.678L97.2675 125.44C97.3275 122.68 96.7575 120.25 95.5575 118.15C94.3575 116.05 92.7075 114.4 90.6075 113.2C88.5675 112 86.1975 111.4 83.4975 111.4C80.7375 111.4 78.3075 112 76.2075 113.2C74.1675 114.4 72.5475 116.08 71.3475 118.24C70.2075 120.34 69.6375 122.83 69.6375 125.71V127.51C69.6375 130.39 70.2975 132.94 71.6175 135.16C72.9375 137.38 74.7975 139.09 77.1975 140.29C79.5975 141.49 82.3575 142.09 85.4775 142.09C88.1775 142.09 90.6075 141.67 92.7675 140.83C94.9275 139.99 96.8475 138.67 98.5275 136.87L104.558 143.8C102.398 146.32 99.6675 148.27 96.3675 149.65C93.1275 150.97 89.4075 151.63 85.2075 151.63ZM148.695 151V141.28L148.065 139.21V122.2C148.065 118.9 147.075 116.35 145.095 114.55C143.115 112.69 140.115 111.76 136.095 111.76C133.395 111.76 130.725 112.18 128.085 113.02C125.505 113.86 123.315 115.03 121.515 116.53L117.105 108.34C119.685 106.36 122.745 104.89 126.285 103.93C129.885 102.91 133.605 102.4 137.445 102.4C144.405 102.4 149.775 104.08 153.555 107.44C157.395 110.74 159.315 115.87 159.315 122.83V151H148.695ZM133.575 151.63C129.975 151.63 126.825 151.03 124.125 149.83C121.425 148.57 119.325 146.86 117.825 144.7C116.385 142.48 115.665 139.99 115.665 137.23C115.665 134.53 116.295 132.1 117.555 129.94C118.875 127.78 121.005 126.07 123.945 124.81C126.885 123.55 130.785 122.92 135.645 122.92H149.595V130.39H136.455C132.615 130.39 130.035 131.02 128.715 132.28C127.395 133.48 126.735 134.98 126.735 136.78C126.735 138.82 127.545 140.44 129.165 141.64C130.785 142.84 133.035 143.44 135.915 143.44C138.675 143.44 141.135 142.81 143.295 141.55C145.515 140.29 147.105 138.43 148.065 135.97L149.955 142.72C148.875 145.54 146.925 147.73 144.105 149.29C141.345 150.85 137.835 151.63 133.575 151.63ZM177.083 151V100.24C177.083 95.2 178.553 91.18 181.493 88.18C184.493 85.12 188.753 83.59 194.273 83.59C196.253 83.59 198.113 83.8 199.853 84.22C201.653 84.64 203.153 85.3 204.353 86.2L201.293 94.66C200.453 94 199.493 93.52 198.413 93.22C197.333 92.86 196.223 92.68 195.083 92.68C192.743 92.68 190.973 93.34 189.773 94.66C188.573 95.92 187.973 97.84 187.973 100.42V105.82L188.333 110.86V151H177.083ZM169.163 112.3V103.3H201.203V112.3H169.163ZM241.086 151.9C236.166 151.9 231.636 151.12 227.496 149.56C223.416 147.94 219.846 145.69 216.786 142.81C213.726 139.87 211.356 136.42 209.676 132.46C207.996 128.5 207.156 124.18 207.156 119.5C207.156 114.82 207.996 110.5 209.676 106.54C211.356 102.58 213.726 99.16 216.786 96.28C219.906 93.34 223.536 91.09 227.676 89.53C231.816 87.91 236.346 87.1 241.266 87.1C246.606 87.1 251.406 87.97 255.666 89.71C259.986 91.45 263.616 94 266.556 97.36L259.176 104.56C256.716 102.1 254.046 100.3 251.166 99.16C248.346 97.96 245.226 97.36 241.806 97.36C238.506 97.36 235.446 97.9 232.626 98.98C229.806 100.06 227.376 101.59 225.336 103.57C223.296 105.55 221.706 107.89 220.566 110.59C219.486 113.29 218.946 116.26 218.946 119.5C218.946 122.68 219.486 125.62 220.566 128.32C221.706 131.02 223.296 133.39 225.336 135.43C227.376 137.41 229.776 138.94 232.536 140.02C235.296 141.1 238.356 141.64 241.716 141.64C244.836 141.64 247.836 141.16 250.716 140.2C253.656 139.18 256.446 137.5 259.086 135.16L265.746 143.89C262.446 146.53 258.606 148.54 254.226 149.92C249.906 151.24 245.526 151.9 241.086 151.9ZM254.676 142.36V118.78H265.746V143.89L254.676 142.36ZM281.898 151V102.94H292.608V116.17L291.348 112.3C292.788 109.06 295.038 106.6 298.098 104.92C301.218 103.24 305.088 102.4 309.708 102.4V113.11C309.228 112.99 308.778 112.93 308.358 112.93C307.938 112.87 307.518 112.84 307.098 112.84C302.838 112.84 299.448 114.1 296.928 116.62C294.408 119.08 293.148 122.77 293.148 127.69V151H281.898ZM343.202 151.63C337.862 151.63 333.182 150.58 329.162 148.48C325.202 146.32 322.112 143.38 319.892 139.66C317.732 135.94 316.652 131.71 316.652 126.97C316.652 122.17 317.702 117.94 319.802 114.28C321.962 110.56 324.902 107.65 328.622 105.55C332.402 103.45 336.692 102.4 341.492 102.4C346.172 102.4 350.342 103.42 354.002 105.46C357.662 107.5 360.542 110.38 362.642 114.1C364.742 117.82 365.792 122.2 365.792 127.24C365.792 127.72 365.762 128.26 365.702 128.86C365.702 129.46 365.672 130.03 365.612 130.57H325.562V123.1H359.672L355.262 125.44C355.322 122.68 354.752 120.25 353.552 118.15C352.352 116.05 350.702 114.4 348.602 113.2C346.562 112 344.192 111.4 341.492 111.4C338.732 111.4 336.302 112 334.202 113.2C332.162 114.4 330.542 116.08 329.342 118.24C328.202 120.34 327.632 122.83 327.632 125.71V127.51C327.632 130.39 328.292 132.94 329.612 135.16C330.932 137.38 332.792 139.09 335.192 140.29C337.592 141.49 340.352 142.09 343.472 142.09C346.172 142.09 348.602 141.67 350.762 140.83C352.922 139.99 354.842 138.67 356.522 136.87L362.552 143.8C360.392 146.32 357.662 148.27 354.362 149.65C351.122 150.97 347.402 151.63 343.202 151.63ZM400.988 151.63C395.648 151.63 390.968 150.58 386.948 148.48C382.988 146.32 379.898 143.38 377.678 139.66C375.518 135.94 374.438 131.71 374.438 126.97C374.438 122.17 375.488 117.94 377.588 114.28C379.748 110.56 382.688 107.65 386.408 105.55C390.188 103.45 394.478 102.4 399.278 102.4C403.958 102.4 408.128 103.42 411.788 105.46C415.448 107.5 418.328 110.38 420.428 114.1C422.528 117.82 423.578 122.2 423.578 127.24C423.578 127.72 423.548 128.26 423.488 128.86C423.488 129.46 423.458 130.03 423.398 130.57H383.348V123.1H417.458L413.048 125.44C413.108 122.68 412.538 120.25 411.338 118.15C410.138 116.05 408.488 114.4 406.388 113.2C404.348 112 401.978 111.4 399.278 111.4C396.518 111.4 394.088 112 391.988 113.2C389.948 114.4 388.328 116.08 387.128 118.24C385.988 120.34 385.418 122.83 385.418 125.71V127.51C385.418 130.39 386.078 132.94 387.398 135.16C388.718 137.38 390.578 139.09 392.978 140.29C395.378 141.49 398.138 142.09 401.258 142.09C403.958 142.09 406.388 141.67 408.548 140.83C410.708 139.99 412.628 138.67 414.308 136.87L420.338 143.8C418.178 146.32 415.448 148.27 412.148 149.65C408.908 150.97 405.188 151.63 400.988 151.63ZM463.454 102.4C467.294 102.4 470.714 103.15 473.714 104.65C476.774 106.15 479.174 108.46 480.914 111.58C482.654 114.64 483.524 118.6 483.524 123.46V151H472.274V124.9C472.274 120.64 471.254 117.46 469.214 115.36C467.234 113.26 464.444 112.21 460.844 112.21C458.204 112.21 455.864 112.75 453.824 113.83C451.784 114.91 450.194 116.53 449.054 118.69C447.974 120.79 447.434 123.46 447.434 126.7V151H436.184V102.94H446.894V115.9L445.004 111.94C446.684 108.88 449.114 106.54 452.294 104.92C455.534 103.24 459.254 102.4 463.454 102.4Z" fill="#6E7F5C"/>
<g clip-path="url(#clip0_54_157)">
<path fill-rule="evenodd" clip-rule="evenodd" d="M126.686 86.0936C127.572 85.4086 128.405 84.6871 129.186 83.9475C116.133 78.4731 106.231 71.8286 97.3056 65.1052C86.6481 65.081 75.6625 62.5711 70.0385 56.1509C78.4188 60.0491 87.2388 60.0673 90.2116 59.6975C65.0181 38.6849 58.0422 18.1391 58.0422 18.1391C66.6653 30.6278 75.7675 40.2793 84.6794 47.9423C80.9453 41.3463 83.1306 29.1486 83.1306 29.1486C90.3953 52.7802 91.2485 53.1561 90.7694 53.3622C96.6756 57.7817 103.074 61.9346 108.403 65.1052C106.487 60.9827 105.128 54.9748 105.305 44.6807C105.305 44.6807 110.043 66.2753 117.485 71.5921C123.411 74.7507 128.628 77.1999 132.671 79.0611C139.076 70.2341 139.109 46.6995 123.411 37.2481C106.493 27.0509 77.966 26.6629 49.1106 0.58206C40.481 -7.22038 56.5197 61.4253 79.7575 80.5646C94.0375 92.3562 112.623 96.9394 126.686 86.0936Z" fill="#6E7F5C"/>
<path fill-rule="evenodd" clip-rule="evenodd" d="M119.933 85.2631C119.933 85.2631 127.677 88.9794 136.563 92.6048C145.448 96.2302 149.707 95.4966 150.206 96.3938C150.718 97.3032 150.462 86.4392 150.462 86.4392C150.462 86.4392 138.466 89.0643 125.111 82.2197L119.933 85.2631Z" fill="#6E7F5C"/>
</g>
<defs>
<clipPath id="clip0_54_157">
<rect width="105" height="97" fill="white" transform="translate(46)"/>
</clipPath>
</defs>
</svg>
